<?xml version="1.0" encoding="UTF-8" standalone="no"?>
<!-- Created with Inkscape (http://www.inkscape.org/) -->

<svg
   width="33mm"
   height="33mm"
   viewBox="0 0 33 33"
   version="1.1"
   id="svg1"
   inkscape:version="1.4.2 (f4327f4, 2025-05-13)"
   sodipodi:docname="Filled_Icon.svg"
   xmlns:inkscape="http://www.inkscape.org/namespaces/inkscape"
   xmlns:sodipodi="http://sodipodi.sourceforge.net/DTD/sodipodi-0.dtd"
   xmlns="http://www.w3.org/2000/svg"
   xmlns:svg="http://www.w3.org/2000/svg">
  <sodipodi:namedview
     id="namedview1"
     pagecolor="#ffffff"
     bordercolor="#999999"
     borderopacity="1"
     inkscape:showpageshadow="2"
     inkscape:pageopacity="0"
     inkscape:pagecheckerboard="0"
     inkscape:deskcolor="#d1d1d1"
     inkscape:document-units="mm"
     inkscape:zoom="4"
     inkscape:cx="22.625"
     inkscape:cy="14"
     inkscape:window-width="2560"
     inkscape:window-height="1369"
     inkscape:window-x="-8"
     inkscape:window-y="-8"
     inkscape:window-maximized="1"
     inkscape:current-layer="layer1" />
  <defs
     id="defs1">
    <mask
       id="mask-2"
       fill="#ffffff">
      <polygon
         id="use1"
         points="0.10424675,9.5614026 0.10424675,0.05961039 6.2722987,0.05961039 6.2722987,9.5614026 " />
    </mask>
    <mask
       id="mask-4"
       fill="#ffffff">
      <polygon
         id="use2"
         points="0.0092597403,7.5324675 0.0092597403,0.0096493506 6.0277013,0.0096493506 6.0277013,7.5324675 " />
    </mask>
    <mask
       id="mask-6"
       fill="#ffffff">
      <polygon
         id="use3"
         points="0.10384416,18.181779 0.10384416,0.05961039 11.001636,0.05961039 11.001636,18.181779 " />
    </mask>
  </defs>
  <g
     inkscape:label="Layer 1"
     inkscape:groupmode="layer"
     id="layer1"
     transform="translate(-56.02792,-71.857864)">
    <rect
       style="fill:#006de5;fill-opacity:1;stroke:none;stroke-width:1.51474;stroke-dasharray:2.77946, 5.55893;stroke-opacity:1;paint-order:markers stroke fill"
       id="rect2"
       width="33"
       height="33"
       x="56.02792"
       y="71.857864" />
    <g
       id="Page-1"
       stroke="none"
       stroke-width="1"
       fill="none"
       fill-rule="evenodd"
       transform="matrix(0.72663709,0,0,0.73912804,57.268541,72.836176)">
      <g
         id="Home"
         transform="translate(-49,-12)">
        <g
           id="Logo-Icon"
           transform="translate(50,13)">
          <circle
             id="Oval"
             stroke="#ffffff"
             cx="20"
             cy="20"
             r="20" />
          <g
             id="Group-44"
             transform="translate(6.363636,12.272727)">
            <g
               id="Group-4"
               transform="translate(20.519481)">
              <mask
                 id="mask4"
                 fill="#ffffff">
                <polygon
                   id="use4"
                   points="0.10424675,0.05961039 6.2722987,0.05961039 6.2722987,9.5614026 0.10424675,9.5614026 " />
              </mask>
              <g
                 id="Clip-3" />
              <path
                 d="m 5.8493117,0.05958442 c -0.7772727,0 -1.7885714,0.07103896 -1.9536364,0.07103896 -0.2122078,0 -1.2003896,-0.07103896 -2.447922,-0.07103896 -0.3531169,0 -0.54116888,0.04701298 -0.54116888,0.21207792 0,0.14090909 0.16506488,0.21207792 0.40012988,0.21207792 0.9172727,0 1.1293506,0.32909091 1.1293506,0.70519484 0,0.3301298 -0.072078,0.8232467 -0.2350649,1.3654545 C 1.6806104,4.2862078 0.83333766,7.0784156 0.10424675,9.5338701 L 1.5635974,9.5614026 C 2.4612597,6.8782857 3.2582727,4.576987 3.8016494,3.0955584 4.2935974,1.7530909 4.5548961,0.81283117 5.1190519,0.60075325 c 0.259091,-0.094026 0.588052,-0.11701299 0.8242858,-0.11701299 0.2110389,0 0.328961,-0.0711688 0.328961,-0.23623377 0,-0.14090909 -0.1649351,-0.18792207 -0.422987,-0.18792207"
                 id="Fill-2"
                 fill="#ffffff"
                 mask="url(#mask-2)" />
            </g>
            <g
               id="Group-7"
               transform="translate(15.714286,10.649351)">
              <mask
                 id="mask5"
                 fill="#ffffff">
                <polygon
                   id="use5"
                   points="0.0092597403,0.0096493506 6.0277013,0.0096493506 6.0277013,7.5324675 0.0092597403,7.5324675 " />
              </mask>
              <g
                 id="Clip-6" />
              <path
                 d="M 3.8761429,2.4487403 H 3.8051039 L 2.8736753,0.2128961 0.00925974,0.41951948 2.4877013,6.379 c 0.3607792,0.8681818 0.4941558,1.1535065 0.7292208,1.1535065 0.3061039,0 0.4176623,-0.2842857 0.6822078,-1.1064935 C 4.4086104,4.8440649 5.2274416,2.4136753 6.0277013,0.00964935 L 4.5736753,0.07081818 C 4.2708182,1.0974416 3.9975714,1.994974 3.8761429,2.4487403"
                 id="Fill-5"
                 fill="#ffffff"
                 mask="url(#mask-4)" />
            </g>
            <g
               id="Group-10">
              <mask
                 id="mask6"
                 fill="#ffffff">
                <polygon
                   id="use6"
                   points="0.10384416,0.05961039 11.001636,0.05961039 11.001636,18.181779 0.10384416,18.181779 " />
              </mask>
              <g
                 id="Clip-9" />
              <path
                 d="M 8.7877403,13.255416 H 8.7167013 C 8.2937143,11.936974 6.1048831,4.7978831 5.7047533,3.241 5.4226753,2.2012597 5.1864416,1.401 5.1864416,1.0948961 c 0,-0.25805194 0.047143,-0.42311688 0.2590909,-0.51714285 0.1651948,-0.094026 0.4001298,-0.094026 0.5883117,-0.094026 0.2361038,0 0.4241558,-0.024026 0.4241558,-0.21207792 0,-0.14103896 -0.1650649,-0.21207792 -0.4941558,-0.21207792 -1.3655845,0 -2.4009091,0.07103896 -2.6128572,0.07103896 -0.2122078,0 -1.5055844,-0.07103896 -2.72999999,-0.07103896 -0.32909091,0 -0.51714285,0.04701299 -0.51714285,0.21207792 0,0.18805195 0.14103896,0.21207792 0.37610389,0.21207792 0.21207792,0 0.68220775,0.0471429 0.94129865,0.21103896 C 1.7503377,0.931 2.0094286,1.495026 2.2926753,2.3663247 L 7.2812467,17.31048 c 0.2119481,0.612208 0.306104,0.871299 0.5411689,0.871299 0.2831169,0 0.3979221,-0.283117 0.8472727,-1.247402 0.5094805,-1.095455 1.3589607,-3.35091 2.3319477,-5.878572 L 9.6000779,10.942169 Z"
                 id="Fill-8"
                 fill="#ffffff"
                 mask="url(#mask-6)" />
            </g>
            <polygon
               id="Fill-11"
               fill="#ffffff"
               points="1.2987013e-05,9.9701818 4.4441688,10.204078 4.3654675,9.9701818 " />
            <path
               d="M 13.755662,7.7071558 12.880987,10.886247 12.534494,9.9745584 11.465273,9.9735195 C 12.314364,7.758974 13.05761,5.7766364 13.259299,5.2372857 h 0.04701 l 1.964805,4.7328572 H 14.708909 Z M 18.22826,9.9701429 14.624883,1.2402727 C 14.318649,0.48377922 14.200597,0.13066234 13.941506,0.13066234 c -0.188051,0 -0.353116,0.18792208 -0.588181,0.85051948 L 10.009299,9.971961 8.1317662,9.970141 l 0.1290909,0.428571 3.7989609,0.223117 0.833247,2.320909 0.97948,-3.3727269 0.50078,1.0506489 12.262337,-0.650519 z"
               id="Fill-13"
               fill="#ffffff" />
          </g>
        </g>
      </g>
    </g>
  </g>
</svg>
