<?xml version="1.0" encoding="UTF-8"?>
<svg width="42px" height="42px" viewBox="0 0 42 42" version="1.1" xmlns="http://www.w3.org/2000/svg" xmlns:xlink="http://www.w3.org/1999/xlink">
    <!-- Generator: Sketch 61.2 (89653) - https://sketch.com -->
    <title>Logo Icon</title>
    <desc>Created with Sketch.</desc>
    <defs>
        <polygon id="path-1" points="0.104246753 0.0596103896 6.2722987 0.0596103896 6.2722987 9.5614026 0.104246753 9.5614026"/>
        <polygon id="path-3" points="0.00925974026 0.00964935065 6.0277013 0.00964935065 6.0277013 7.53246753 0.00925974026 7.53246753"/>
        <polygon id="path-5" points="0.103844156 0.0596103896 11.0016364 0.0596103896 11.0016364 18.1817792 0.103844156 18.1817792"/>
    </defs>
    <g id="Page-1" stroke="none" stroke-width="1" fill="none" fill-rule="evenodd">
        <g id="Home" transform="translate(-49.000000, -12.000000)">
            <g id="Logo-Icon" transform="translate(50.000000, 13.000000)">
                <circle id="Oval" stroke="#FFFFFF" cx="20" cy="20" r="20"/>
                <g id="Group-44" transform="translate(6.363636, 12.272727)">
                    <g id="Group-4" transform="translate(20.519481, 0.000000)">
                        <mask id="mask-2" fill="white">
                            <use xlink:href="#path-1"/>
                        </mask>
                        <g id="Clip-3"/>
                        <path d="M5.84931169,0.0595844156 C5.07203896,0.0595844156 4.06074026,0.130623377 3.89567532,0.130623377 C3.68346753,0.130623377 2.69528571,0.0595844156 1.44775325,0.0595844156 C1.09463636,0.0595844156 0.906584416,0.106597403 0.906584416,0.271662338 C0.906584416,0.412571429 1.07164935,0.48374026 1.30671429,0.48374026 C2.22398701,0.48374026 2.43606494,0.812831169 2.43606494,1.18893506 C2.43606494,1.51906494 2.36398701,2.01218182 2.201,2.55438961 C1.68061039,4.28620779 0.833337662,7.07841558 0.104246753,9.53387013 L1.5635974,9.5614026 C2.46125974,6.87828571 3.25827273,4.57698701 3.80164935,3.09555844 C4.2935974,1.75309091 4.5548961,0.812831169 5.11905195,0.600753247 C5.37814286,0.506727273 5.7071039,0.48374026 5.94333766,0.48374026 C6.15437662,0.48374026 6.2722987,0.412571429 6.2722987,0.247506494 C6.2722987,0.106597403 6.10736364,0.0595844156 5.84931169,0.0595844156" id="Fill-2" fill="#FFFFFF" mask="url(#mask-2)"/>
                    </g>
                    <g id="Group-7" transform="translate(15.714286, 10.649351)">
                        <mask id="mask-4" fill="white">
                            <use xlink:href="#path-3"/>
                        </mask>
                        <g id="Clip-6"/>
                        <path d="M3.87614286,2.44874026 L3.8051039,2.44874026 L2.87367532,0.212896104 L0.00925974026,0.419519481 L2.4877013,6.379 C2.84848052,7.24718182 2.98185714,7.53250649 3.21692208,7.53250649 C3.52302597,7.53250649 3.63458442,7.24822078 3.89912987,6.42601299 C4.40861039,4.84406494 5.22744156,2.41367532 6.0277013,0.00964935065 L4.57367532,0.0708181818 C4.27081818,1.09744156 3.99757143,1.99497403 3.87614286,2.44874026" id="Fill-5" fill="#FFFFFF" mask="url(#mask-4)"/>
                    </g>
                    <g id="Group-10">
                        <mask id="mask-6" fill="white">
                            <use xlink:href="#path-5"/>
                        </mask>
                        <g id="Clip-9"/>
                        <path d="M8.78774026,13.2554156 L8.7167013,13.2554156 C8.29371429,11.936974 6.10488312,4.79788312 5.70475325,3.241 C5.42267532,2.20125974 5.18644156,1.401 5.18644156,1.0948961 C5.18644156,0.836844156 5.23358442,0.671779221 5.44553247,0.577753247 C5.61072727,0.483727273 5.84566234,0.483727273 6.03384416,0.483727273 C6.26994805,0.483727273 6.458,0.459701299 6.458,0.271649351 C6.458,0.13061039 6.29293506,0.0595714286 5.96384416,0.0595714286 C4.59825974,0.0595714286 3.56293506,0.13061039 3.35098701,0.13061039 C3.13877922,0.13061039 1.8454026,0.0595714286 0.620987013,0.0595714286 C0.291896104,0.0595714286 0.103844156,0.106584416 0.103844156,0.271649351 C0.103844156,0.459701299 0.244883117,0.483727273 0.479948052,0.483727273 C0.692025974,0.483727273 1.16215584,0.53087013 1.42124675,0.694766234 C1.75033766,0.931 2.00942857,1.49502597 2.29267532,2.36632468 L7.28124675,17.3104805 C7.49319481,17.9226883 7.58735065,18.1817792 7.82241558,18.1817792 C8.10553247,18.1817792 8.22033766,17.8986623 8.66968831,16.9343766 C9.17916883,15.8389221 10.0286494,13.5834675 11.0016364,11.0558052 L9.60007792,10.9421688 L8.78774026,13.2554156 Z" id="Fill-8" fill="#FFFFFF" mask="url(#mask-6)"/>
                    </g>
                    <polygon id="Fill-11" fill="#FFFFFF" points="1.2987013e-05 9.97018182 4.44416883 10.2040779 4.36546753 9.97018182"/>
                    <path d="M13.7556623,7.70715584 L12.880987,10.8862468 L12.5344935,9.97455844 L11.4652727,9.97351948 C12.3143636,7.75897403 13.0576104,5.77663636 13.2592987,5.23728571 L13.3063117,5.23728571 L15.2711169,9.97014286 L14.7089091,9.97014286 L13.7556623,7.70715584 Z M18.2282597,9.97014286 L14.6248831,1.24027273 C14.3186494,0.483779221 14.2005974,0.130662338 13.9415065,0.130662338 C13.7534545,0.130662338 13.5883896,0.318584416 13.3533247,0.981181818 L10.0092987,9.97196104 L8.13176623,9.97014286 L8.26085714,10.3987143 L12.0598182,10.6218312 L12.8930649,12.9427403 L13.8725455,9.57001299 L14.3733247,10.6206623 L26.6356623,9.97014286 L18.2282597,9.97014286 Z" id="Fill-13" fill="#FFFFFF"/>
                </g>
            </g>
        </g>
    </g>
<script xmlns=""/></svg>